<svg xmlns="http://www.w3.org/2000/svg" viewBox="0 0 86.5 86.5"><defs><style>.cls-1,.cls-2{fill:none;}.cls-1{stroke:#d3bba1;stroke-miterlimit:10;stroke-width:2px;}</style></defs><g id="Layer_2" data-name="Layer 2"><g id="Layer_1-2" data-name="Layer 1"><g id="Layer_2-2" data-name="Layer 2"><g id="Layer_2-2-2" data-name="Layer 2-2"><rect class="cls-1" x="15.75" y="57.41" width="16.68" height="13.8" rx="0.57"/><path class="cls-1" d="M44.27,71.2H33a.56.56,0,0,1-.57-.55h0V58a.56.56,0,0,1,.56-.56H48.54a.57.57,0,0,1,.57.56V70.64"/><rect class="cls-1" x="49.11" y="36.75" width="21.45" height="20.66" rx="0.79"/><path class="cls-1" d="M70,36.75H49.69a.78.78,0,0,1-.61-1.26L59.22,22.38a.78.78,0,0,1,1.09-.14l.14.14L70.59,35.49a.78.78,0,0,1-.14,1.09A.76.76,0,0,1,70,36.75Z"/><path class="cls-1" d="M45.14,30H19.48c-.82,0-1.29-.74-.79-1.26L31.53,15.6a1.16,1.16,0,0,1,1.56,0L45.92,28.71C46.42,29.23,46,30,45.14,30Z"/><path class="cls-1" d="M69.92,57.41H49.75a.64.64,0,0,0-.64.64V70.56a.64.64,0,0,0,.64.64h6.43V67.45a3.66,3.66,0,1,1,7.31-.38,2.41,2.41,0,0,1,0,.38V71.2h6.43a.64.64,0,0,0,.64-.64V58.05a.64.64,0,0,0-.64-.64Z"/><circle class="cls-1" cx="59.83" cy="47.08" r="4.76"/><rect class="cls-1" x="21.78" y="29.97" width="21.05" height="27.44"/><path class="cls-1" d="M32.31,35.68h0a3.93,3.93,0,0,1,3.94,3.94h0V57.41H28.37V39.62A3.93,3.93,0,0,1,32.31,35.68Z"/><line class="cls-1" x1="21.78" y1="44.13" x2="28.37" y2="44.13"/><line class="cls-1" x1="36.25" y1="44.13" x2="42.84" y2="44.13"/></g></g><rect class="cls-2" width="86.5" height="86.5"/></g></g></svg>