<svg xmlns="http://www.w3.org/2000/svg" viewBox="0 0 86.5 86.5"><defs><style>.cls-1,.cls-2{fill:none;}.cls-2{stroke:#d3bba1;stroke-miterlimit:10;stroke-width:2px;}</style></defs><g id="Layer_2" data-name="Layer 2"><g id="Layer_1-2" data-name="Layer 1"><rect class="cls-1" width="86.5" height="86.5"/><g id="Layer_2-2" data-name="Layer 2"><g id="Layer_2-2-2" data-name="Layer 2-2"><path class="cls-2" d="M58.93,19.29h4.46a3.85,3.85,0,0,1,3.85,3.85V63.21a3.86,3.86,0,0,1-3.85,3.85H23.32a3.85,3.85,0,0,1-3.85-3.85V23.14a3.85,3.85,0,0,1,3.85-3.85H49.88"/><rect class="cls-2" x="27.08" y="27.43" width="13.45" height="13.45" rx="1.46"/><circle class="cls-2" cx="53.7" cy="33.62" r="6.86"/><path class="cls-2" d="M53,46,46.3,57.61a.83.83,0,0,0,.3,1.14.85.85,0,0,0,.42.11H60.38a.83.83,0,0,0,.83-.82.92.92,0,0,0-.11-.43L54.47,46a.83.83,0,0,0-1.11-.38A.82.82,0,0,0,53,46Z"/><path class="cls-2" d="M37.29,49.44l4.06,1.3a.41.41,0,0,1,.27.51.37.37,0,0,1-.07.14l-2.67,3.32a.44.44,0,0,0-.09.27v4.26a.42.42,0,0,1-.43.42.31.31,0,0,1-.13,0l-4-1.52a.45.45,0,0,0-.28,0l-4,1.34a.42.42,0,0,1-.53-.27.39.39,0,0,1,0-.15l.22-4.25a.44.44,0,0,0-.09-.27L27,51.08a.41.41,0,0,1,.1-.58.33.33,0,0,1,.13-.07l4.11-1.14a.41.41,0,0,0,.23-.16l2.48-3.46a.41.41,0,0,1,.58-.1.27.27,0,0,1,.11.1l2.33,3.62A.38.38,0,0,0,37.29,49.44Z"/></g></g></g></g></svg>