<svg xmlns="http://www.w3.org/2000/svg" viewBox="0 0 86.5 86.5"><defs><style>.cls-1,.cls-2{fill:none;}.cls-2{stroke:#d3bba1;stroke-miterlimit:10;stroke-width:2px;}</style></defs><g id="Layer_2" data-name="Layer 2"><g id="Layer_1-2" data-name="Layer 1"><rect class="cls-1" width="86.5" height="86.5"/><g id="Layer_2-2" data-name="Layer 2"><g id="Layer_2-2-2" data-name="Layer 2-2"><path class="cls-2" d="M40,54.56a4.37,4.37,0,0,0-1.48.12.19.19,0,0,1-.22-.13s0,0,0,0v-6h-6a.17.17,0,0,0-.18.17v.06a4.32,4.32,0,1,1-8.38,2.1,5.19,5.19,0,0,1-.13-1,4.66,4.66,0,0,1,.13-1.06.17.17,0,0,0-.06-.25.18.18,0,0,0-.16,0H19.69a2.21,2.21,0,0,0-2.22,2.2V67a2.23,2.23,0,0,0,2.22,2.22H36A2.22,2.22,0,0,0,38.25,67h0V63.23a.18.18,0,0,1,.22-.13h0a4.34,4.34,0,0,0,5.39-4.19v0A4.37,4.37,0,0,0,40,54.56Z"/><path class="cls-2" d="M44.34,46.77a4.48,4.48,0,0,0,.13,1.41.23.23,0,0,1-.14.29H38.25v6a.18.18,0,0,0,.18.18h0a4.24,4.24,0,0,1,1.94,0,4.32,4.32,0,0,1-.88,8.56,4.88,4.88,0,0,1-1.07-.12.17.17,0,0,0-.22.12.43.43,0,0,0,0,.05v3.8a2.22,2.22,0,0,0,2.23,2.19H56.81A2.21,2.21,0,0,0,59,67.06V50.7a2.21,2.21,0,0,0-2.22-2.22H53.08a.25.25,0,0,1-.24-.22s0-.06,0-.08a4.26,4.26,0,0,0,.11-1,4.31,4.31,0,0,0-4.31-4.33h0A4.39,4.39,0,0,0,44.34,46.77Z"/><path class="cls-2" d="M32.17,50.21a4.4,4.4,0,0,0-.1-1.4.26.26,0,0,1,.18-.3h6v-6a.17.17,0,0,0-.17-.19H38A4.33,4.33,0,1,1,35.84,34,3.91,3.91,0,0,1,37,33.81a4.16,4.16,0,0,1,1.06.13.19.19,0,0,0,.23-.13s0,0,0-.05V30a2.2,2.2,0,0,0-2.2-2.22H19.69a2.21,2.21,0,0,0-2.22,2.2V46.28a2.23,2.23,0,0,0,2.21,2.23h3.79a.24.24,0,0,1,.24.24.13.13,0,0,1,0,.06,4.79,4.79,0,0,0-.11,1A4.35,4.35,0,0,0,27.9,54.1,4.39,4.39,0,0,0,32.17,50.21Z"/><path class="cls-2" d="M69.22,21.63V19.32A2.2,2.2,0,0,0,67,17.1H50.66a2.22,2.22,0,0,0-2.19,2.22v4a.08.08,0,0,1-.08.07h0A4.31,4.31,0,0,0,43,26.34a4.7,4.7,0,0,0-.17,1.24,4.3,4.3,0,0,0,5.52,4.11.08.08,0,0,1,.1,0v6.19h6a.19.19,0,0,0,.19-.18.09.09,0,0,0,0,0,4.7,4.7,0,0,1,0-1.94,4.32,4.32,0,0,1,8.56.88A3.85,3.85,0,0,1,63,37.7a.19.19,0,0,0,.13.22H67a2.21,2.21,0,0,0,2.22-2.2V27.49"/></g></g></g></g></svg>