<svg xmlns="http://www.w3.org/2000/svg" viewBox="0 0 86.5 86.5"><defs><style>.cls-1,.cls-2{fill:none;}.cls-2{stroke:#d3bba1;stroke-miterlimit:10;stroke-width:2px;}</style></defs><g id="Layer_2" data-name="Layer 2"><g id="Layer_1-2" data-name="Layer 1"><rect class="cls-1" width="86.5" height="86.5"/><g id="Layer_2-2" data-name="Layer 2"><g id="Layer_2-2-2" data-name="Layer 2-2"><path class="cls-2" d="M56.4,59.94h6.88a4.53,4.53,0,0,1,4.53,4.53h0A4.52,4.52,0,0,1,63.28,69H23.41a4.54,4.54,0,0,1-4.52-4.52h0a4.53,4.53,0,0,1,4.52-4.53h5.12"/><path class="cls-2" d="M32.89,59.94H28.24a4.53,4.53,0,0,1-4.53-4.51v0h0a4.52,4.52,0,0,1,4.52-4.52H58.46A4.51,4.51,0,0,1,63,55.38h0a4.52,4.52,0,0,1-4.52,4.52H39.56"/><rect class="cls-2" x="28.53" y="41.85" width="29.63" height="9.05" rx="4.52"/><rect class="cls-2" x="33.35" y="32.8" width="19.99" height="9.05" rx="4.52"/><path class="cls-2" d="M48.71,22.76a5.37,5.37,0,1,0-8.1,4.6V32.8h5.47V27.39A5.29,5.29,0,0,0,48.71,22.76Z"/></g></g></g></g></svg>